<?xml version="1.0" encoding="UTF-8" standalone="no"?>
<!DOCTYPE svg PUBLIC "-//W3C//DTD SVG 1.1//EN"
 "http://www.w3.org/Graphics/SVG/1.1/DTD/svg11.dtd">
<!-- Generated by graphviz version 2.40.1 (20161225.0304)
 -->
<svg width="292pt" height="360pt"
 viewBox="0.00 0.00 291.55 360.00" xmlns="http://www.w3.org/2000/svg" xmlns:xlink="http://www.w3.org/1999/xlink">
<g id="graph0" class="graph" transform="scale(.87 .87) rotate(0) translate(4 409.8082)">
<title>finite_state_machine</title>
<polygon fill="#ffffff" stroke="transparent" points="-4,4 -4,-409.8082 331.1287,-409.8082 331.1287,4 -4,4"/>
<g id="node1" class="node">
<title>NORMAL</title>
<ellipse fill="none" stroke="#000000" cx="176.7074" cy="-353.3782" rx="48.3653" ry="48.3653"/>
<ellipse fill="none" stroke="#000000" cx="176.7074" cy="-353.3782" rx="52.36" ry="52.36"/>
<text text-anchor="middle" x="176.7074" y="-349.1782" font-family="Times,serif" font-size="14.00" fill="#000000">NORMAL</text>
</g>
<g id="node2" class="node">
<title>IF_TRUE</title>
<ellipse fill="none" stroke="#000000" cx="111.7074" cy="-202.1815" rx="45.4614" ry="45.4614"/>
<text text-anchor="middle" x="111.7074" y="-197.9815" font-family="Times,serif" font-size="14.00" fill="#000000">IF_TRUE</text>
</g>
<g id="edge1" class="edge">
<title>NORMAL&#45;&gt;IF_TRUE</title>
<path fill="none" stroke="#000000" d="M154.1976,-305.8C150.719,-298.188 147.2199,-290.3741 144.014,-282.9483 140.0184,-273.6933 135.91,-263.7735 132.0193,-254.165"/>
<polygon fill="#000000" stroke="#000000" points="135.1905,-252.6695 128.2135,-244.6962 128.6955,-255.2801 135.1905,-252.6695"/>
<text text-anchor="middle" x="170.5541" y="-271.7483" font-family="Times,serif" font-size="14.00" fill="#000000">ifdef true</text>
</g>
<g id="node3" class="node">
<title>IF_FALSE</title>
<ellipse fill="none" stroke="#000000" cx="223.7074" cy="-202.1815" rx="48.5346" ry="48.5346"/>
<text text-anchor="middle" x="223.7074" y="-197.9815" font-family="Times,serif" font-size="14.00" fill="#000000">IF_FALSE</text>
</g>
<g id="edge2" class="edge">
<title>NORMAL&#45;&gt;IF_FALSE</title>
<path fill="none" stroke="#000000" d="M192.3577,-303.0319C196.7622,-288.863 201.5822,-273.357 206.0931,-258.8459"/>
<polygon fill="#000000" stroke="#000000" points="209.5314,-259.5755 209.1577,-248.9873 202.8469,-257.4976 209.5314,-259.5755"/>
<text text-anchor="middle" x="229.8851" y="-271.7483" font-family="Times,serif" font-size="14.00" fill="#000000">ifdef false</text>
</g>
<g id="node4" class="node">
<title>EL_FALSE</title>
<ellipse fill="none" stroke="#000000" cx="51.7074" cy="-51.7074" rx="51.9156" ry="51.9156"/>
<text text-anchor="middle" x="51.7074" y="-47.5074" font-family="Times,serif" font-size="14.00" fill="#000000">EL_FALSE</text>
</g>
<g id="edge3" class="edge">
<title>IF_TRUE&#45;&gt;EL_FALSE</title>
<path fill="none" stroke="#000000" d="M94.8344,-159.8656C88.6048,-144.2426 81.4346,-126.2605 74.7518,-109.5005"/>
<polygon fill="#000000" stroke="#000000" points="77.8391,-107.7933 70.8841,-99.8008 71.3369,-110.386 77.8391,-107.7933"/>
<text text-anchor="middle" x="94.5902" y="-124.2148" font-family="Times,serif" font-size="14.00" fill="#000000">else</text>
</g>
<g id="node5" class="node">
<title>EL_TRUE</title>
<ellipse fill="none" stroke="#000000" cx="278.7074" cy="-51.7074" rx="48.3427" ry="48.3427"/>
<text text-anchor="middle" x="278.7074" y="-47.5074" font-family="Times,serif" font-size="14.00" fill="#000000">EL_TRUE</text>
</g>
<g id="edge4" class="edge">
<title>IF_FALSE&#45;&gt;EL_TRUE</title>
<path fill="none" stroke="#000000" d="M240.508,-156.2167C246.1589,-140.7567 252.5237,-123.3431 258.414,-107.2279"/>
<polygon fill="#000000" stroke="#000000" points="261.8639,-107.9846 262.0096,-97.3907 255.2893,-105.5814 261.8639,-107.9846"/>
<text text-anchor="middle" x="263.5902" y="-124.2148" font-family="Times,serif" font-size="14.00" fill="#000000">else</text>
</g>
<g id="edge6" class="edge">
<title>EL_FALSE&#45;&gt;NORMAL</title>
<path fill="none" stroke="#000000" d="M31.6178,-99.5954C17.1914,-141.807 4.234,-203.7575 28.9418,-250.9483 47.8669,-287.0945 85.9888,-313.0326 118.7704,-329.7635"/>
<polygon fill="#000000" stroke="#000000" points="117.3372,-332.9591 127.8545,-334.2392 120.431,-326.6799 117.3372,-332.9591"/>
<text text-anchor="middle" x="44.0902" y="-197.9815" font-family="Times,serif" font-size="14.00" fill="#000000">endif</text>
</g>
<g id="edge5" class="edge">
<title>EL_TRUE&#45;&gt;NORMAL</title>
<path fill="none" stroke="#000000" d="M287.0754,-99.4242C292.4769,-140.4387 296.1083,-200.7351 281.7074,-250.9483 273.6101,-279.182 251.4962,-302.7664 229.6392,-320.16"/>
<polygon fill="#000000" stroke="#000000" points="227.4446,-317.4321 221.6247,-326.2852 231.6953,-322.9938 227.4446,-317.4321"/>
<text text-anchor="middle" x="306.0902" y="-197.9815" font-family="Times,serif" font-size="14.00" fill="#000000">endif</text>
</g>
</g>
</svg>
